<?xml version="1.0" encoding="utf-8"?>
<!-- Generator: Adobe Illustrator 26.2.1, SVG Export Plug-In . SVG Version: 6.00 Build 0)  -->
<svg version="1.1" id="Layer_1" xmlns="http://www.w3.org/2000/svg" xmlns:xlink="http://www.w3.org/1999/xlink" x="0px" y="0px"
	 viewBox="0 0 64 64" style="enable-background:new 0 0 64 64;" xml:space="preserve">
<style type="text/css">
	.st0{fill:#CAE7DF;}
	.st1{fill:#CCFFCC;stroke:#CAE7DF;stroke-width:2;stroke-linecap:round;stroke-miterlimit:10;}
	.st2{fill:none;stroke:#CAE7DF;stroke-width:2;stroke-linecap:round;stroke-linejoin:round;}
</style>
<circle class="st0" cx="32" cy="42" r="4"/>
<path class="st1" d="M32,33v8.5">
<animateTransform  accumulate="none" additive="replace" attributeName="transform" calcMode="linear" dur="1s" fill="remove" repeatCount="indefinite" restart="always" type="translate" values="0 0; 0 1; 0 0">
		</animateTransform>
</path>
<g>
	<polyline class="st2" points="44,26 44,38 41,34.5 44,38 47,34.5 	"/>
	
		<animateTransform  accumulate="none" additive="replace" attributeName="transform" begin="0s" calcMode="linear" dur="1.5s" fill="remove" keyTimes="0.0; 0.5; 0.9; 1.0" repeatCount="indefinite" restart="always" type="translate" values="0 0; 0 0; 0 6; 0 6">
		</animateTransform>
	
		<animate  accumulate="none" additive="replace" attributeName="opacity" calcMode="linear" dur="1.5s" fill="remove" keyTimes="0.0; 0.3; 0.8; 0.9; 1.0" repeatCount="indefinite" restart="always" values="0; 1; 1; 0; 0">
		</animate>
</g>
<path class="st2" d="M39,41.9c0,3.9-3.1,7-7,7s-7-3.1-7-7c0-2.3,1.1-4.5,3-5.8v-17c0-2.2,1.8-4,4-4s4,1.8,4,4v17
	C37.9,37.4,39,39.6,39,41.9z M32.5,25h3 M32.5,21h3 M32.5,29h3"/>
</svg>
